<svg xmlns="http://www.w3.org/2000/svg" xmlns:xlink="http://www.w3.org/1999/xlink" width="500" zoomAndPan="magnify" viewBox="0 0 375 374.999991" height="500" preserveAspectRatio="xMidYMid meet" version="1.0"><defs><g/><clipPath id="001fabf834"><path d="M 8.300781 78 L 366.800781 78 L 366.800781 214 L 8.300781 214 Z M 8.300781 78 " clip-rule="nonzero"/></clipPath></defs><g clip-path="url(#001fabf834)"><path fill="#100f0d" d="M 366.589844 207.421875 C 365.933594 207.226562 344.914062 200.8125 333.898438 189.402344 C 322.707031 177.816406 318.832031 182.535156 308.9375 183.824219 C 299.035156 185.113281 295.164062 201.851562 289.140625 203.136719 C 283.113281 204.425781 280.53125 201.851562 274.933594 207.429688 C 269.339844 213.011719 264.605469 210.007812 275.796875 197.128906 C 286.984375 184.253906 296.023438 181.679688 291.289062 177.386719 C 286.554688 173.09375 284.40625 164.9375 274.933594 160.644531 C 265.46875 156.355469 266.328125 150.808594 262.453125 144.355469 C 258.582031 137.898438 260.304688 123.734375 251.695312 132.320312 C 243.089844 140.902344 202.203125 178.246094 202.203125 178.246094 C 203.0625 185.542969 195.316406 166.226562 187.570312 163.652344 C 179.824219 161.078125 176.378906 163.222656 165.191406 172.664062 C 154 182.109375 140.230469 181.679688 141.949219 191.550781 C 143.671875 201.421875 125.597656 200.769531 118.28125 210.109375 C 110.964844 219.449219 116.128906 206.574219 121.722656 197.988281 C 127.316406 189.402344 122.582031 187.257812 118.28125 189.835938 C 113.976562 192.410156 103.214844 192.410156 129.039062 181.679688 C 154.863281 170.949219 147.113281 167.515625 153.570312 161.078125 C 160.027344 154.640625 178.101562 155.351562 173.367188 145.984375 C 168.632812 136.609375 171.644531 130.601562 168.203125 129.3125 C 164.761719 128.027344 173.800781 125.878906 164.761719 128.027344 C 155.722656 130.171875 155.722656 130.171875 155.722656 130.171875 C 155.722656 130.171875 134.632812 141.761719 143.671875 133.175781 C 152.710938 124.59375 164.761719 120.300781 163.46875 112.574219 C 162.175781 104.847656 163.898438 88.109375 150.988281 94.976562 C 138.078125 101.84375 97.621094 148.199219 89.445312 152.921875 C 89.4375 152.921875 89.429688 152.929688 89.417969 152.9375 C 87.957031 153.78125 87.242188 155.496094 87.714844 157.121094 C 87.886719 157.726562 88.109375 158.363281 88.386719 159.03125 C 90.109375 163.136719 89.773438 167.859375 89.222656 170.980469 C 90.425781 173.324219 91.148438 175.273438 90.738281 176.101562 C 89.445312 178.671875 97.191406 189.835938 83.417969 174.8125 C 83.222656 174.585938 83.042969 174.382812 82.84375 174.175781 C 82.308594 174.066406 81.734375 173.804688 81.136719 173.335938 C 77.710938 170.628906 74.90625 172.195312 70.027344 169.617188 C 68.605469 168.871094 66.832031 168.554688 65.015625 168.484375 C 63.761719 168.441406 62.53125 168.835938 61.515625 169.582031 C 47.128906 180.210938 17.691406 203.777344 8.535156 207.429688 C 8.535156 207.429688 48.988281 161.078125 73.089844 150.347656 C 97.191406 139.613281 152.277344 67.9375 171.644531 79.953125 C 191.011719 91.972656 223.722656 137.039062 231.46875 134.035156 C 239.214844 131.03125 251.265625 106.136719 269.339844 120.300781 C 287.417969 134.464844 295.59375 150.773438 315.390625 158.929688 C 334.910156 166.976562 365.726562 206.308594 366.589844 207.421875 " fill-opacity="1" fill-rule="nonzero"/></g><path stroke-linecap="butt" transform="matrix(1.774316, 0, 0, 1.774316, 3.602789, 232.823759)" fill="none" stroke-linejoin="miter" d="M 8.067999 -7.231841 L 2.555312 35.000542 L 16.896225 35.000542 C 24.046868 35.000542 31.184301 33.756665 32.547062 23.407166 L 32.705574 22.16549 C 33.299993 17.51361 31.79193 14.314754 28.434562 13.176551 C 31.673046 12.04055 33.299993 9.872021 33.841575 5.656048 L 34.000087 4.414372 C 35.254972 -5.168986 28.648113 -7.231841 22.039052 -7.231841 Z M 19.606336 17.249423 C 22.316447 17.249423 24.363891 18.438262 23.875147 22.112653 L 23.769472 22.931631 C 23.280727 26.764534 20.795175 27.427201 18.085063 27.427201 L 12.297182 27.427201 L 13.591695 17.249423 Z M 21.006524 0.356911 C 23.346774 0.356911 25.554931 1.321191 25.132233 4.625721 L 25.024357 5.444699 C 24.58845 8.907741 21.933377 9.607834 19.817685 9.607834 L 14.622021 9.607834 L 15.865898 0.356911 Z M 46.280347 -7.231841 L 40.769861 35.000542 L 55.110775 35.000542 C 62.261417 35.000542 69.398851 33.756665 70.75941 23.407166 L 70.917922 22.16549 C 71.514543 17.51361 70.006479 14.314754 66.649112 13.176551 C 69.887595 12.04055 71.514543 9.872021 72.056125 5.656048 L 72.214637 4.414372 C 73.469521 -5.168986 66.860461 -7.231841 60.2514 -7.231841 Z M 57.820886 17.249423 C 60.528795 17.249423 62.578441 18.438262 62.089696 22.112653 L 61.984022 22.931631 C 61.495277 26.764534 59.009724 27.427201 56.299613 27.427201 L 50.511731 27.427201 L 51.806244 17.249423 Z M 59.221073 0.356911 C 61.561324 0.356911 63.767279 1.321191 63.344581 4.625721 L 63.238907 5.444699 C 62.802999 8.907741 60.145725 9.607834 58.032235 9.607834 L 52.836571 9.607834 L 54.080448 0.356911 Z M 93.536673 -7.231841 L 84.772292 -7.231841 L 79.246395 35.000542 L 88.023986 35.000542 Z M 112.650553 -7.231841 L 103.872963 -7.231841 L 98.362476 35.000542 L 107.124656 35.000542 L 108.645929 22.812747 L 113.033623 17.566447 L 118.438434 35.000542 L 128.127467 35.000542 L 119.5238 9.713509 L 133.653364 -7.231841 L 122.986842 -7.231841 L 110.429186 9.066253 Z M 141.761682 -7.231841 L 136.251196 35.000542 L 162.0644 35.000542 L 163.044091 27.427201 L 145.993066 27.427201 L 147.340417 17.249423 L 161.694539 17.249423 L 162.672029 9.660672 L 148.317906 9.660672 L 149.561783 0.356911 L 166.626017 0.356911 L 167.590297 -7.231841 Z M 186.050315 17.302261 C 192.051748 18.438262 193.623656 20.382233 193.253795 23.14298 L 193.134912 23.95095 C 192.765051 26.711696 190.702196 28.127295 187.080642 28.127295 L 186.53906 28.127295 C 182.468389 28.127295 179.982837 26.011603 180.735768 20.593582 L 171.973588 20.593582 L 171.815077 21.848467 C 170.610827 30.890243 175.925375 35.700636 186.591897 35.700636 C 195.461953 35.700636 201.038485 31.748849 202.071014 23.898112 L 202.229525 22.654235 C 203.10134 15.992337 198.991041 11.829201 190.266289 10.204455 C 184.212019 9.066253 182.957134 7.124483 183.287367 4.625721 L 183.393042 3.819953 C 183.723274 1.162679 186.103153 -0.358594 189.024613 -0.358594 L 189.566195 -0.358594 C 194.442634 -0.358594 195.792186 2.29868 195.092092 7.718902 L 203.854271 7.718902 L 204.025992 6.461816 C 205.267668 -2.894783 200.774299 -7.931935 189.513358 -7.931935 C 180.854651 -7.931935 175.489468 -3.927311 174.459141 3.87279 L 174.298428 5.114466 C 173.49266 11.234782 176.955702 15.622476 186.050315 17.302261 Z M 186.050315 17.302261 " stroke="#006d1f" stroke-width="4.06104" stroke-opacity="1" stroke-miterlimit="4"/><g fill="#000000" fill-opacity="1"><g transform="translate(7.456381, 294.92482)"><g><path d="M 10.46875 -74.929688 L 0.671875 0 L 26.128906 0 C 38.808594 0 51.488281 -2.210938 53.890625 -20.558594 L 54.179688 -22.765625 C 55.234375 -31.027344 52.546875 -36.695312 46.589844 -38.710938 C 52.351562 -40.730469 55.234375 -44.574219 56.195312 -52.066406 L 56.484375 -54.273438 C 58.695312 -71.277344 46.972656 -74.929688 35.253906 -74.929688 Z M 30.933594 -31.507812 C 35.734375 -31.507812 39.386719 -29.394531 38.519531 -22.863281 L 38.328125 -21.421875 C 37.464844 -14.601562 33.046875 -13.449219 28.242188 -13.449219 L 17.964844 -13.449219 L 20.269531 -31.507812 Z M 33.429688 -61.480469 C 37.558594 -61.480469 41.5 -59.75 40.730469 -53.890625 L 40.539062 -52.449219 C 39.769531 -46.300781 35.0625 -45.054688 31.316406 -45.054688 L 22.09375 -45.054688 L 24.304688 -61.480469 Z M 33.429688 -61.480469 "/></g></g></g><g fill="#000000" fill-opacity="1"><g transform="translate(75.260028, 294.92482)"><g><path d="M 10.46875 -74.929688 L 0.671875 0 L 26.128906 0 C 38.808594 0 51.488281 -2.210938 53.890625 -20.558594 L 54.179688 -22.765625 C 55.234375 -31.027344 52.546875 -36.695312 46.589844 -38.710938 C 52.351562 -40.730469 55.234375 -44.574219 56.195312 -52.066406 L 56.484375 -54.273438 C 58.695312 -71.277344 46.972656 -74.929688 35.253906 -74.929688 Z M 30.933594 -31.507812 C 35.734375 -31.507812 39.386719 -29.394531 38.519531 -22.863281 L 38.328125 -21.421875 C 37.464844 -14.601562 33.046875 -13.449219 28.242188 -13.449219 L 17.964844 -13.449219 L 20.269531 -31.507812 Z M 33.429688 -61.480469 C 37.558594 -61.480469 41.5 -59.75 40.730469 -53.890625 L 40.539062 -52.449219 C 39.769531 -46.300781 35.0625 -45.054688 31.316406 -45.054688 L 22.09375 -45.054688 L 24.304688 -61.480469 Z M 33.429688 -61.480469 "/></g></g></g><g fill="#000000" fill-opacity="1"><g transform="translate(143.063675, 294.92482)"><g><path d="M 26.511719 -74.929688 L 10.949219 -74.929688 L 1.152344 0 L 16.714844 0 Z M 26.511719 -74.929688 "/></g></g></g><g fill="#000000" fill-opacity="1"><g transform="translate(177.447153, 294.92482)"><g><path d="M 26.03125 -74.929688 L 10.46875 -74.929688 L 0.671875 0 L 16.234375 0 L 18.925781 -21.613281 L 26.707031 -30.933594 L 36.3125 0 L 53.507812 0 L 38.234375 -44.859375 L 63.304688 -74.929688 L 44.378906 -74.929688 L 22.09375 -46.011719 Z M 26.03125 -74.929688 "/></g></g></g><g fill="#000000" fill-opacity="1"><g transform="translate(244.674578, 294.92482)"><g><path d="M 10.46875 -74.929688 L 0.671875 0 L 46.492188 0 L 48.222656 -13.449219 L 17.964844 -13.449219 L 20.363281 -31.507812 L 45.820312 -31.507812 L 47.550781 -44.957031 L 22.09375 -44.957031 L 24.304688 -61.480469 L 54.5625 -61.480469 L 56.292969 -74.929688 Z M 10.46875 -74.929688 "/></g></g></g><g fill="#000000" fill-opacity="1"><g transform="translate(306.908193, 294.92482)"><g><path d="M 26.800781 -31.410156 C 37.464844 -29.394531 40.25 -25.9375 39.578125 -21.039062 L 39.386719 -19.597656 C 38.710938 -14.699219 35.0625 -12.199219 28.625 -12.199219 L 27.664062 -12.199219 C 20.460938 -12.199219 16.042969 -15.945312 17.386719 -25.550781 L 1.824219 -25.550781 L 1.535156 -23.34375 C -0.578125 -7.300781 8.835938 1.25 27.761719 1.25 C 43.515625 1.25 53.410156 -5.765625 55.234375 -19.691406 L 55.523438 -21.902344 C 57.058594 -33.71875 49.761719 -41.113281 34.292969 -43.996094 C 23.535156 -46.011719 21.324219 -49.472656 21.902344 -53.890625 L 22.09375 -55.332031 C 22.671875 -60.039062 26.898438 -62.726562 32.085938 -62.726562 L 33.046875 -62.726562 C 41.691406 -62.726562 44.09375 -58.019531 42.84375 -48.414062 L 58.40625 -48.414062 L 58.695312 -50.625 C 60.902344 -67.242188 52.929688 -76.175781 32.949219 -76.175781 C 17.578125 -76.175781 8.070312 -69.066406 6.242188 -55.234375 L 5.957031 -53.027344 C 4.515625 -42.171875 10.664062 -34.390625 26.800781 -31.410156 Z M 26.800781 -31.410156 "/></g></g></g></svg>