<svg xmlns="http://www.w3.org/2000/svg" xmlns:xlink="http://www.w3.org/1999/xlink" width="500" zoomAndPan="magnify" viewBox="0 0 375 374.999991" height="500" preserveAspectRatio="xMidYMid meet" version="1.0"><defs><clipPath id="9f90081b65"><path d="M 0.136719 90.710938 L 374.863281 90.710938 L 374.863281 344.972656 L 0.136719 344.972656 Z M 0.136719 90.710938 " clip-rule="nonzero"/></clipPath><clipPath id="ccef91e6fd"><path d="M 47 37.5 L 154 37.5 L 154 193 L 47 193 Z M 47 37.5 " clip-rule="nonzero"/></clipPath></defs><path fill="#000000" d="M 245.773438 156.179688 L 246.542969 163.632812 C 249.007812 163.394531 251.558594 163.265625 254.132812 163.265625 C 256.253906 163.265625 258.441406 163.351562 260.632812 163.519531 L 261.226562 156.050781 C 258.839844 155.871094 256.453125 155.777344 254.132812 155.777344 C 251.304688 155.777344 248.496094 155.914062 245.773438 156.179688 " fill-opacity="1" fill-rule="nonzero"/><path fill="#000000" d="M 216.273438 165.453125 L 220.152344 171.917969 C 224.167969 169.621094 228.445312 167.757812 232.859375 166.378906 L 230.523438 159.246094 C 225.574219 160.789062 220.777344 162.878906 216.273438 165.453125 " fill-opacity="1" fill-rule="nonzero"/><path fill="#000000" d="M 113.734375 267.726562 C 118.792969 266.722656 123.773438 265.3125 128.535156 263.535156 L 125.789062 256.539062 C 121.421875 258.167969 116.851562 259.464844 112.203125 260.386719 L 113.734375 267.726562 " fill-opacity="1" fill-rule="nonzero"/><path fill="#000000" d="M 193.25 185.480469 L 199.28125 190.109375 C 202.296875 186.367188 205.527344 182.964844 208.886719 180.011719 L 203.746094 174.449219 C 200.066406 177.691406 196.535156 181.402344 193.25 185.480469 " fill-opacity="1" fill-rule="nonzero"/><path fill="#000000" d="M 83.851562 261.777344 L 83.171875 269.234375 C 86.597656 269.535156 90.027344 269.6875 93.367188 269.6875 C 95.078125 269.6875 96.796875 269.648438 98.480469 269.570312 L 98.117188 262.085938 C 96.554688 262.160156 94.953125 262.195312 93.367188 262.195312 C 90.253906 262.195312 87.054688 262.054688 83.851562 261.777344 " fill-opacity="1" fill-rule="nonzero"/><path fill="#000000" d="M 150.15625 242.617188 C 146.445312 245.585938 142.535156 248.257812 138.53125 250.550781 L 142.417969 257.011719 C 146.761719 254.519531 151.003906 251.628906 155.019531 248.414062 L 150.15625 242.617188 " fill-opacity="1" fill-rule="nonzero"/><path fill="#000000" d="M 169.601562 222.246094 C 166.714844 226.113281 163.65625 229.753906 160.515625 233.066406 L 166.148438 238.15625 C 169.492188 234.628906 172.742188 230.757812 175.804688 226.65625 L 169.601562 222.246094 " fill-opacity="1" fill-rule="nonzero"/><path fill="#000000" d="M 53.402344 263.15625 C 58.292969 264.710938 63.234375 266.003906 68.089844 267.007812 L 69.679688 259.679688 C 65.085938 258.730469 60.410156 257.503906 55.777344 256.03125 L 53.402344 263.15625 " fill-opacity="1" fill-rule="nonzero"/><path fill="#000000" d="M 301.945312 174.730469 C 306.210938 176.613281 310.578125 178.75 314.933594 181.074219 L 318.617188 174.5 C 314.09375 172.085938 309.550781 169.867188 305.109375 167.90625 L 301.945312 174.730469 " fill-opacity="1" fill-rule="nonzero"/><path fill="#000000" d="M 274.707031 165.617188 C 279.1875 166.597656 283.835938 167.898438 288.527344 169.484375 L 291.039062 162.40625 C 286.078125 160.730469 281.144531 159.351562 276.386719 158.308594 L 274.707031 165.617188 " fill-opacity="1" fill-rule="nonzero"/><g clip-path="url(#9f90081b65)"><path fill="#000000" d="M 278.84375 238.371094 L 274.738281 238.628906 L 271.714844 241.417969 L 220.65625 288.519531 L 173.214844 145.773438 L 223.691406 102.710938 L 294.664062 105.367188 L 332.019531 182.253906 C 331.875 182.160156 331.726562 182.070312 331.585938 181.980469 L 327.476562 188.304688 C 331.179688 190.597656 334.871094 193.035156 338.480469 195.550781 L 356.882812 233.425781 Z M 302.050781 94.039062 L 219.605469 90.957031 L 164.511719 137.957031 L 150.898438 135.5625 C 149.121094 139.023438 147.175781 142.609375 145.066406 146.304688 L 162.179688 149.320312 L 180.664062 204.9375 C 179.625 206.828125 178.558594 208.679688 177.484375 210.472656 L 183.683594 214.023438 L 209.871094 292.835938 L 130.625 289.214844 L 127.203125 289.054688 L 124.242188 290.789062 L 61.324219 327.597656 L 39.472656 257.304688 L 42.296875 251.019531 C 40.21875 250.128906 38.355469 249.277344 36.738281 248.5 L 13.820312 174.769531 L 56.691406 147.082031 C 54.683594 143.585938 52.816406 140.1875 51.101562 136.894531 L 0.136719 169.808594 L 54.585938 344.972656 L 130.097656 300.792969 L 219.988281 304.90625 L 279.578125 249.941406 L 374.863281 243.902344 L 302.050781 94.039062 " fill-opacity="1" fill-rule="nonzero"/></g><g clip-path="url(#ccef91e6fd)"><path fill="#000000" d="M 71.632812 87.425781 C 71.632812 71.398438 84.628906 58.402344 100.65625 58.402344 C 116.6875 58.402344 129.679688 71.398438 129.679688 87.425781 C 129.679688 103.453125 116.6875 116.449219 100.65625 116.449219 C 84.628906 116.449219 71.632812 103.453125 71.632812 87.425781 Z M 153.917969 90.757812 C 153.917969 61.34375 130.074219 37.496094 100.65625 37.496094 C 71.242188 37.496094 47.394531 61.34375 47.394531 90.757812 C 47.394531 125.117188 100.65625 192.28125 100.65625 192.28125 C 100.65625 192.28125 153.917969 125.117188 153.917969 90.757812 " fill-opacity="1" fill-rule="nonzero"/></g></svg>