<svg xmlns="http://www.w3.org/2000/svg" xmlns:xlink="http://www.w3.org/1999/xlink" width="500" zoomAndPan="magnify" viewBox="0 0 375 374.999991" height="500" preserveAspectRatio="xMidYMid meet" version="1.0"><defs><clipPath id="b10508b61a"><path d="M 4 74.019531 L 371.980469 74.019531 L 371.980469 301 L 4 301 Z M 4 74.019531 " clip-rule="nonzero"/></clipPath></defs><g clip-path="url(#b10508b61a)"><path fill="#000000" d="M 18.53125 74.386719 C 17.59375 74.371094 16.667969 74.449219 15.746094 74.621094 C 14.824219 74.792969 13.929688 75.054688 13.058594 75.40625 C 12.191406 75.753906 11.363281 76.1875 10.582031 76.699219 C 9.796875 77.214844 9.070312 77.800781 8.40625 78.460938 C 7.738281 79.117188 7.140625 79.835938 6.617188 80.613281 C 6.09375 81.390625 5.648438 82.210938 5.289062 83.078125 C 4.925781 83.945312 4.652344 84.835938 4.46875 85.757812 C 4.285156 86.675781 4.191406 87.605469 4.191406 88.542969 C 4.191406 89.480469 4.285156 90.410156 4.46875 91.328125 C 4.652344 92.25 4.925781 93.140625 5.289062 94.007812 C 5.648438 94.871094 6.09375 95.695312 6.617188 96.472656 C 7.140625 97.25 7.738281 97.964844 8.40625 98.625 C 9.070312 99.285156 9.796875 99.871094 10.582031 100.382812 C 11.363281 100.898438 12.191406 101.332031 13.058594 101.679688 C 13.929688 102.03125 14.824219 102.292969 15.746094 102.460938 C 16.667969 102.632812 17.59375 102.714844 18.53125 102.699219 L 357.84375 102.699219 C 358.777344 102.714844 359.707031 102.632812 360.628906 102.460938 C 361.550781 102.292969 362.445312 102.03125 363.316406 101.679688 C 364.183594 101.332031 365.011719 100.898438 365.792969 100.382812 C 366.578125 99.871094 367.300781 99.285156 367.96875 98.625 C 368.636719 97.964844 369.230469 97.25 369.757812 96.472656 C 370.28125 95.695312 370.726562 94.871094 371.085938 94.007812 C 371.449219 93.140625 371.722656 92.25 371.90625 91.328125 C 372.089844 90.410156 372.183594 89.480469 372.183594 88.542969 C 372.183594 87.605469 372.089844 86.675781 371.90625 85.757812 C 371.722656 84.835938 371.449219 83.945312 371.085938 83.078125 C 370.726562 82.210938 370.28125 81.390625 369.757812 80.613281 C 369.230469 79.835938 368.636719 79.117188 367.96875 78.460938 C 367.300781 77.800781 366.578125 77.214844 365.792969 76.699219 C 365.011719 76.1875 364.183594 75.753906 363.316406 75.40625 C 362.445312 75.054688 361.550781 74.792969 360.628906 74.621094 C 359.707031 74.449219 358.777344 74.371094 357.84375 74.386719 Z M 18.53125 173.488281 C 17.59375 173.472656 16.667969 173.554688 15.746094 173.726562 C 14.824219 173.898438 13.929688 174.15625 13.058594 174.507812 C 12.191406 174.855469 11.363281 175.289062 10.582031 175.804688 C 9.796875 176.316406 9.070312 176.90625 8.40625 177.5625 C 7.738281 178.222656 7.140625 178.941406 6.617188 179.714844 C 6.09375 180.492188 5.648438 181.316406 5.289062 182.179688 C 4.925781 183.046875 4.652344 183.9375 4.46875 184.859375 C 4.285156 185.777344 4.191406 186.707031 4.191406 187.644531 C 4.191406 188.582031 4.285156 189.511719 4.46875 190.433594 C 4.652344 191.351562 4.925781 192.246094 5.289062 193.109375 C 5.648438 193.976562 6.09375 194.796875 6.617188 195.574219 C 7.140625 196.351562 7.738281 197.070312 8.40625 197.726562 C 9.070312 198.386719 9.796875 198.972656 10.582031 199.488281 C 11.363281 200 12.191406 200.433594 13.058594 200.785156 C 13.929688 201.132812 14.824219 201.394531 15.746094 201.566406 C 16.667969 201.738281 17.59375 201.816406 18.53125 201.804688 L 357.84375 201.804688 C 358.777344 201.816406 359.707031 201.738281 360.628906 201.566406 C 361.550781 201.394531 362.445312 201.132812 363.316406 200.785156 C 364.183594 200.433594 365.011719 200 365.792969 199.488281 C 366.578125 198.972656 367.300781 198.386719 367.96875 197.726562 C 368.636719 197.070312 369.230469 196.351562 369.757812 195.574219 C 370.28125 194.796875 370.726562 193.976562 371.085938 193.109375 C 371.449219 192.246094 371.722656 191.351562 371.90625 190.433594 C 372.089844 189.511719 372.183594 188.582031 372.183594 187.644531 C 372.183594 186.707031 372.089844 185.777344 371.90625 184.859375 C 371.722656 183.9375 371.449219 183.046875 371.085938 182.179688 C 370.726562 181.316406 370.28125 180.492188 369.757812 179.714844 C 369.230469 178.941406 368.636719 178.222656 367.96875 177.5625 C 367.300781 176.90625 366.578125 176.316406 365.792969 175.804688 C 365.011719 175.289062 364.183594 174.855469 363.316406 174.507812 C 362.445312 174.15625 361.550781 173.898438 360.628906 173.726562 C 359.707031 173.554688 358.777344 173.472656 357.84375 173.488281 Z M 18.53125 272.589844 C 17.59375 272.578125 16.667969 272.65625 15.746094 272.828125 C 14.824219 273 13.929688 273.261719 13.058594 273.609375 C 12.191406 273.960938 11.363281 274.390625 10.582031 274.90625 C 9.796875 275.421875 9.070312 276.007812 8.40625 276.664062 C 7.738281 277.324219 7.140625 278.042969 6.617188 278.820312 C 6.09375 279.597656 5.648438 280.417969 5.289062 281.285156 C 4.925781 282.148438 4.652344 283.042969 4.46875 283.960938 C 4.285156 284.882812 4.191406 285.808594 4.191406 286.75 C 4.191406 287.6875 4.285156 288.613281 4.46875 289.535156 C 4.652344 290.453125 4.925781 291.347656 5.289062 292.210938 C 5.648438 293.078125 6.09375 293.898438 6.617188 294.675781 C 7.140625 295.453125 7.738281 296.171875 8.40625 296.832031 C 9.070312 297.488281 9.796875 298.074219 10.582031 298.589844 C 11.363281 299.105469 12.191406 299.535156 13.058594 299.886719 C 13.929688 300.234375 14.824219 300.496094 15.746094 300.667969 C 16.667969 300.839844 17.59375 300.917969 18.53125 300.90625 L 357.84375 300.90625 C 358.777344 300.917969 359.707031 300.839844 360.628906 300.667969 C 361.550781 300.496094 362.445312 300.234375 363.316406 299.886719 C 364.183594 299.535156 365.011719 299.105469 365.792969 298.589844 C 366.578125 298.074219 367.300781 297.488281 367.96875 296.832031 C 368.636719 296.171875 369.230469 295.453125 369.757812 294.675781 C 370.28125 293.898438 370.726562 293.078125 371.085938 292.210938 C 371.449219 291.347656 371.722656 290.453125 371.90625 289.535156 C 372.089844 288.613281 372.183594 287.6875 372.183594 286.75 C 372.183594 285.808594 372.089844 284.882812 371.90625 283.960938 C 371.722656 283.042969 371.449219 282.148438 371.085938 281.285156 C 370.726562 280.417969 370.28125 279.597656 369.757812 278.820312 C 369.230469 278.042969 368.636719 277.324219 367.96875 276.664062 C 367.300781 276.007812 366.578125 275.421875 365.792969 274.90625 C 365.011719 274.390625 364.183594 273.960938 363.316406 273.609375 C 362.445312 273.261719 361.550781 273 360.628906 272.828125 C 359.707031 272.65625 358.777344 272.578125 357.84375 272.589844 Z M 18.53125 272.589844 " fill-opacity="1" fill-rule="nonzero"/></g></svg>