<svg xmlns="http://www.w3.org/2000/svg" xmlns:xlink="http://www.w3.org/1999/xlink" width="500" zoomAndPan="magnify" viewBox="0 0 375 374.999991" height="500" preserveAspectRatio="xMidYMid meet" version="1.0"><defs><clipPath id="437b7e085f"><path d="M 25 198 L 351 198 L 351 368.960938 L 25 368.960938 Z M 25 198 " clip-rule="nonzero"/></clipPath><clipPath id="e04cfea093"><path d="M 93 5.960938 L 282 5.960938 L 282 194 L 93 194 Z M 93 5.960938 " clip-rule="nonzero"/></clipPath></defs><g clip-path="url(#437b7e085f)"><path fill="#000000" d="M 259.777344 198.589844 C 238.820312 213.96875 213.527344 222.28125 187.550781 222.335938 C 161.542969 222.277344 136.246094 213.960938 115.265625 198.589844 C 64.324219 204.34375 25.058594 245.0625 25.058594 294.796875 L 25.058594 332.578125 C 25.058594 358.988281 37.957031 368.773438 60.664062 368.585938 L 314.402344 368.585938 C 337.113281 368.773438 350.011719 358.988281 350.011719 332.578125 L 350.011719 294.796875 C 350.011719 245.054688 310.742188 204.3125 259.777344 198.589844 Z M 259.777344 198.589844 " fill-opacity="1" fill-rule="nonzero"/></g><g clip-path="url(#e04cfea093)"><path fill="#000000" d="M 187.550781 5.8125 C 162.5625 5.8125 138.628906 15.722656 120.964844 33.375 C 103.332031 51.027344 93.421875 74.953125 93.421875 99.902344 C 93.421875 124.847656 103.332031 148.792969 120.964844 166.425781 C 138.628906 184.078125 162.5625 193.980469 187.550781 193.980469 C 212.5 193.980469 236.441406 184.078125 254.101562 166.425781 C 271.761719 148.792969 281.671875 124.847656 281.671875 99.902344 C 281.671875 74.953125 271.757812 51.023438 254.101562 33.375 C 236.441406 15.71875 212.5 5.8125 187.550781 5.8125 Z M 187.550781 5.8125 " fill-opacity="1" fill-rule="nonzero"/></g></svg>